<?xml version="1.0" encoding="UTF-8" ?>
<!DOCTYPE svg PUBLIC "-//W3C//DTD SVG 1.1//EN" "http://www.w3.org/Graphics/SVG/1.1/DTD/svg11.dtd">
<svg width="916pt" height="420pt" viewBox="0 0 916 420" version="1.1" xmlns="http://www.w3.org/2000/svg">
<g id="#ffffffff">
</g>
<g id="#58c133ff">
<path fill="#58c133" opacity="1.00" d=" M 450.54 17.61 C 476.69 18.03 502.85 17.45 529.00 17.54 C 639.35 17.59 749.70 17.41 860.05 17.48 C 873.07 17.10 885.53 25.79 890.38 37.77 C 892.15 42.65 893.12 47.81 893.24 53.00 C 893.23 151.34 893.24 249.67 893.23 348.01 C 893.08 356.74 894.11 366.07 889.85 374.06 C 888.09 377.43 885.74 380.40 883.37 383.34 C 880.43 385.50 877.45 387.63 874.22 389.34 C 869.34 391.22 864.22 392.56 858.95 392.28 C 665.82 392.25 472.69 392.42 279.56 392.39 C 279.39 382.03 279.62 371.66 279.46 361.30 C 284.25 360.47 289.12 360.81 293.95 360.78 C 475.30 360.77 656.64 360.70 837.99 360.71 C 842.10 360.65 846.40 360.89 850.27 359.25 C 855.57 356.14 859.08 350.27 858.61 344.05 C 858.68 251.03 858.62 158.02 858.64 65.00 C 859.08 59.32 855.46 54.10 850.76 51.26 C 846.60 48.79 841.59 49.70 837.01 49.51 C 719.28 49.51 601.54 49.62 483.81 49.46 C 483.66 120.15 483.78 190.85 483.75 261.55 C 464.84 261.61 445.92 261.60 427.01 261.54 C 422.89 261.59 418.85 260.77 414.79 260.23 C 402.47 257.40 390.58 251.17 383.02 240.78 C 382.73 240.56 382.14 240.12 381.85 239.89 C 371.40 223.49 368.95 202.50 374.65 184.00 C 375.45 181.99 376.28 180.00 377.04 177.98 C 384.48 162.20 400.37 152.04 417.00 148.28 C 427.93 145.44 439.31 146.15 450.47 146.56 C 450.53 103.57 450.40 60.59 450.54 17.61 M 430.11 166.48 C 420.80 171.22 417.05 181.86 414.98 191.43 C 412.09 207.58 412.85 225.64 422.79 239.38 C 425.27 241.65 428.01 243.62 430.93 245.30 C 437.23 247.43 443.94 246.81 450.47 246.58 C 450.48 218.91 450.49 191.24 450.47 163.57 C 443.61 163.01 436.17 162.58 430.11 166.48 Z" />
<path fill="#58c133" opacity="1.00" d=" M 21.01 24.96 C 26.87 20.79 33.77 17.83 41.05 17.75 C 155.77 17.71 270.48 17.77 385.19 17.72 C 386.78 17.57 387.52 18.24 387.43 19.74 C 387.58 29.69 387.38 39.64 387.51 49.59 C 299.00 49.73 210.49 49.80 121.99 49.83 C 100.69 50.54 79.37 49.79 58.07 50.26 C 49.95 50.04 42.90 57.95 43.55 65.97 C 43.61 158.97 43.48 251.97 43.62 344.96 C 43.26 351.06 46.91 356.76 52.16 359.64 C 55.58 360.92 59.31 361.05 62.92 361.24 C 103.19 361.38 143.47 360.96 183.74 361.28 C 183.81 360.21 183.88 359.15 183.94 358.10 C 183.94 301.06 183.88 244.02 183.86 186.98 C 184.06 173.51 183.40 160.02 184.30 146.57 C 202.54 146.69 220.78 146.59 239.02 146.62 C 242.42 146.60 245.77 147.23 249.10 147.79 C 248.95 147.62 248.64 147.29 248.48 147.13 C 253.23 148.73 258.26 149.41 262.87 151.42 C 267.15 153.14 271.08 155.58 274.98 158.01 C 288.88 167.96 295.63 185.31 295.55 202.03 C 295.90 209.17 294.81 216.25 293.15 223.17 C 291.36 228.92 288.51 234.25 285.20 239.26 C 274.05 253.11 256.46 260.41 239.08 262.03 C 231.84 262.91 224.57 262.11 217.35 261.61 C 216.15 263.50 216.95 265.94 216.85 268.05 C 217.76 276.37 216.39 284.72 217.16 293.04 C 216.55 304.33 216.74 315.65 217.17 326.95 C 216.34 334.97 217.53 343.01 216.83 351.03 C 216.90 364.78 216.79 378.54 216.78 392.29 C 158.52 392.55 100.27 392.31 42.01 392.41 C 33.39 392.79 25.23 388.80 18.84 383.27 C 15.52 379.30 12.40 375.01 10.87 370.01 C 9.16 365.17 9.26 359.98 9.26 354.93 C 9.31 256.62 9.19 158.31 9.22 60.00 C 9.30 54.66 8.91 49.29 9.69 44.00 C 11.06 36.53 15.52 30.04 21.01 24.96 M 217.61 162.53 C 217.65 190.21 217.72 217.90 217.59 245.58 C 222.05 246.28 226.68 246.83 231.12 245.61 C 235.65 244.68 239.47 241.96 243.11 239.26 C 244.45 237.28 245.85 235.34 247.25 233.40 C 247.92 231.97 248.59 230.54 249.28 229.13 C 255.62 212.47 255.93 193.38 249.16 176.81 C 246.44 172.31 243.53 167.52 238.54 165.26 C 232.17 161.61 224.63 162.52 217.61 162.53 Z" />
<path fill="#58c133" opacity="1.00" d=" M 631.84 145.52 C 637.54 143.54 644.08 143.26 649.61 145.93 C 656.13 148.51 659.44 155.12 663.28 160.52 C 667.24 165.98 670.53 171.92 674.91 177.07 C 680.41 186.48 687.40 194.92 693.00 204.25 C 693.39 204.43 694.19 204.79 694.59 204.97 C 694.61 185.76 694.63 166.55 694.52 147.34 C 700.79 147.12 707.07 147.10 713.34 147.36 C 713.14 175.56 713.35 203.77 713.28 231.97 C 713.19 240.44 713.80 249.15 711.29 257.36 C 707.90 266.64 694.22 268.18 687.68 261.48 C 683.95 257.61 681.12 252.98 678.11 248.56 C 672.87 240.37 667.43 232.31 662.18 224.13 C 661.89 223.88 661.31 223.39 661.02 223.15 C 658.61 217.95 654.79 213.61 652.05 208.60 C 651.76 208.27 651.17 207.60 650.88 207.26 C 647.93 201.92 643.89 197.28 641.11 191.84 C 640.79 191.68 640.16 191.38 639.84 191.23 C 639.49 190.01 639.15 188.80 638.80 187.60 C 638.07 193.05 638.44 198.55 638.39 204.03 C 638.34 223.52 638.42 243.02 638.36 262.52 C 632.31 262.60 626.25 262.52 620.21 262.59 C 619.60 257.41 619.86 252.19 619.84 246.99 C 619.82 221.67 619.86 196.34 619.82 171.01 C 619.82 167.38 620.25 163.78 620.58 160.17 C 622.15 153.99 625.84 148.18 631.84 145.52 Z" />
<path fill="#58c133" opacity="1.00" d=" M 101.98 149.84 C 110.05 147.07 118.66 147.46 127.05 147.24 C 136.52 147.20 145.99 147.15 155.45 147.35 C 155.35 152.69 155.35 158.03 155.37 163.37 C 144.90 163.62 134.43 163.19 123.98 163.73 C 121.08 164.67 117.67 165.24 115.89 168.01 C 114.20 170.04 114.52 172.78 114.39 175.23 C 114.89 176.19 115.38 177.17 115.86 178.15 C 119.79 182.97 126.17 184.05 131.90 185.35 C 141.60 187.65 152.32 189.96 159.09 197.93 C 166.64 205.93 168.77 217.74 166.83 228.30 C 164.82 241.12 155.92 252.65 144.03 257.85 C 137.47 260.58 130.52 262.49 123.38 262.55 C 109.78 262.85 96.16 262.79 82.56 262.65 C 82.55 257.28 82.59 251.92 82.59 246.55 C 94.39 246.44 106.19 246.66 117.99 246.45 C 122.89 246.13 128.77 245.31 131.76 240.92 C 135.18 234.69 133.82 225.43 127.26 221.81 C 117.83 217.64 107.20 217.81 97.65 213.93 C 90.06 210.99 83.19 205.71 80.10 197.97 C 79.33 195.76 78.51 193.57 77.70 191.37 C 77.19 185.12 76.58 178.55 78.93 172.56 C 80.85 167.65 83.30 162.71 87.29 159.14 C 91.52 155.13 96.29 151.45 101.98 149.84 Z" />
<path fill="#58c133" opacity="1.00" d=" M 315.49 147.28 C 328.16 147.21 340.84 147.06 353.50 147.37 C 353.39 185.77 353.59 224.16 353.57 262.56 C 340.89 262.64 328.20 262.67 315.52 262.54 C 315.43 224.12 315.48 185.70 315.49 147.28 Z" />
<path fill="#58c133" opacity="1.00" d=" M 518.90 160.94 C 522.56 152.26 531.70 147.24 540.91 147.29 C 559.45 147.10 578.02 147.09 596.56 147.27 C 596.52 152.64 596.53 158.01 596.48 163.38 C 586.63 163.31 576.78 163.28 566.94 163.36 C 563.02 163.32 558.23 164.39 556.46 168.33 C 554.56 172.97 554.66 178.08 554.72 183.00 C 554.80 187.49 554.38 192.02 555.21 196.47 C 567.70 196.37 580.19 196.40 592.69 196.42 C 592.84 201.79 592.80 207.16 592.66 212.52 C 580.02 212.51 567.37 212.49 554.72 212.55 C 554.76 220.02 554.65 227.50 554.75 234.97 C 554.77 237.96 555.65 240.83 556.56 243.64 C 557.24 244.21 557.92 244.79 558.61 245.37 C 564.63 246.84 570.85 246.31 576.98 246.39 C 584.20 246.40 591.42 246.36 598.64 246.44 C 598.86 251.80 598.73 257.16 598.69 262.53 C 579.14 262.51 559.58 262.64 540.03 262.48 C 531.30 262.37 521.00 258.42 518.08 249.45 C 516.45 243.45 516.74 237.15 516.74 230.99 C 516.74 212.01 516.76 193.03 516.73 174.05 C 516.71 170.98 517.25 167.94 517.77 164.92 C 518.16 163.60 518.53 162.27 518.90 160.94 Z" />
<path fill="#58c133" opacity="1.00" d=" M 726.40 147.33 C 740.94 146.90 755.50 147.55 770.04 146.85 C 790.13 147.00 810.23 146.74 830.34 146.71 C 830.40 152.08 830.30 157.46 830.43 162.84 C 819.47 163.89 808.42 162.98 797.42 163.36 C 797.40 196.41 797.58 229.46 797.45 262.50 C 784.77 262.57 772.09 262.55 759.40 262.53 C 759.35 229.49 759.29 196.45 759.44 163.40 C 748.46 163.28 737.49 163.28 726.52 163.40 C 726.34 158.05 726.41 152.69 726.40 147.33 Z" />
</g>
</svg>
